HIERARCHY
ROOT Hips
{
	OFFSET 0.000000 0.000000 0.000000
	CHANNELS 6 Xposition Yposition Zposition Zrotation Yrotation Xrotation
	JOINT LeftUpLeg
	{
		OFFSET 0.103459 1.857827 10.548521
		CHANNELS 6 Xposition Yposition Zposition Zrotation Yrotation Xrotation
		JOINT LeftLeg
		{
			OFFSET 43.499979 0.000107 0.000090
			CHANNELS 6 Xposition Yposition Zposition Zrotation Yrotation Xrotation
			JOINT LeftFoot
			{
				OFFSET 42.372168 0.000034 0.000010
				CHANNELS 6 Xposition Yposition Zposition Zrotation Yrotation Xrotation
				JOINT LeftToe
				{
					OFFSET 17.299924 -0.000089 0.000018
					CHANNELS 6 Xposition Yposition Zposition Zrotation Yrotation Xrotation
					End Site
					{
						OFFSET 6.000000 0.000000 0.000000
					}
				}
			}
		}
	}
	JOINT RightUpLeg
	{
		OFFSET 0.103456 1.857863 -10.548456
		CHANNELS 6 Xposition Yposition Zposition Zrotation Yrotation Xrotation
		JOINT RightLeg
		{
			OFFSET 43.500042 -0.000002 0.000029
			CHANNELS 6 Xposition Yposition Zposition Zrotation Yrotation Xrotation
			JOINT RightFoot
			{
				OFFSET 42.372205 0.000033 0.000070
				CHANNELS 6 Xposition Yposition Zposition Zrotation Yrotation Xrotation
				JOINT RightToe
				{
					OFFSET 17.299951 -0.000065 0.000070
					CHANNELS 6 Xposition Yposition Zposition Zrotation Yrotation Xrotation
					End Site
					{
						OFFSET 6.000000 0.000000 0.000000
					}
				}
			}
		}
	}
	JOINT Spine
	{
		OFFSET 6.901935 -2.603664 0.000033
		CHANNELS 6 Xposition Yposition Zposition Zrotation Yrotation Xrotation
		JOINT Spine1
		{
			OFFSET 12.588142 0.000010 -0.000051
			CHANNELS 6 Xposition Yposition Zposition Zrotation Yrotation Xrotation
			JOINT Spine2
			{
				OFFSET 12.343166 -0.000098 0.000026
				CHANNELS 6 Xposition Yposition Zposition Zrotation Yrotation Xrotation
				JOINT Neck
				{
					OFFSET 25.832894 0.000061 0.000061
					CHANNELS 6 Xposition Yposition Zposition Zrotation Yrotation Xrotation
					JOINT Head
					{
						OFFSET 11.766657 -0.000023 -0.000040
						CHANNELS 6 Xposition Yposition Zposition Zrotation Yrotation Xrotation
						End Site
						{
							OFFSET 12.000000 0.000000 0.000000
						}
					}
				}
				JOINT LeftShoulder
				{
					OFFSET 19.745926 -1.480308 6.000100
					CHANNELS 6 Xposition Yposition Zposition Zrotation Yrotation Xrotation
					JOINT LeftArm
					{
						OFFSET 11.284141 -0.000067 -0.000035
						CHANNELS 6 Xposition Yposition Zposition Zrotation Yrotation Xrotation
						JOINT LeftForeArm
						{
							OFFSET 33.000033 0.000026 -0.000005
							CHANNELS 6 Xposition Yposition Zposition Zrotation Yrotation Xrotation
							JOINT LeftHand
							{
								OFFSET 25.200056 0.000059 -0.000020
								CHANNELS 6 Xposition Yposition Zposition Zrotation Yrotation Xrotation
								End Site
								{
									OFFSET 9.000000 0.000000 0.000000
								}
							}
						}
					}
				}
				JOINT RightShoulder
				{
					OFFSET 19.746108 -1.480276 -5.999995
					CHANNELS 6 Xposition Yposition Zposition Zrotation Yrotation Xrotation
					JOINT RightArm
					{
						OFFSET 11.284248 -0.000015 -0.000063
						CHANNELS 6 Xposition Yposition Zposition Zrotation Yrotation Xrotation
						JOINT RightForeArm
						{
							OFFSET 33.000071 0.000058 0.000097
							CHANNELS 6 Xposition Yposition Zposition Zrotation Yrotation Xrotation
							JOINT RightHand
							{
								OFFSET 25.199705 0.000114 0.000349
								CHANNELS 6 Xposition Yposition Zposition Zrotation Yrotation Xrotation
								End Site
								{
									OFFSET 9.000000 0.000000 0.000000
								}
							}
						}
					}
				}
			}
		}
	}
}
MOTION
Frames: 11
Frame Time: 0.0333333
0.0000 2.8540 0.0000 86.4297 83.8917 88.6766 0.1035 1.8578 10.5485 101.8970 -1.5174 171.6059 43.5000 0.0001 0.0001 -93.0845 11.2457 -4.4400 42.3722 0.0000 0.0000 79.5401 -2.3061 -2.8513 17.2999 -0.0001 0.0000 21.4546 0.0031 -0.0001 0.1035 1.8579 -10.5485 104.0220 4.6439 -178.1170 43.5000 -0.0000 0.0000 -91.7262 0.8909 5.2877 42.3722 0.0000 0.0001 81.2479 -3.5754 3.3614 17.3000 -0.0001 0.0001 21.4546 -0.0031 0.0000 6.9019 -2.6037 0.0000 -4.5053 -0.1459 0.3272 12.5881 0.0000 -0.0001 10.9246 0.9143 0.9021 12.3432 -0.0001 0.0000 -9.3476 -0.1037 0.8512 25.8329 0.0001 0.0001 31.7371 8.5243 -2.0699 11.7667 -0.0000 -0.0000 14.9072 -14.1441 -0.3639 19.7459 -1.4803 6.0001 -48.4625 -83.9219 -123.9116 11.2841 -0.0001 -0.0000 -72.7574 61.8996 -77.6916 33.0000 0.0000 -0.0000 -43.9771 -9.0485 -11.4595 25.2001 0.0001 -0.0000 12.8595 1.5532 18.3587 19.7461 -1.4803 -6.0000 -76.9019 80.1694 95.6953 11.2842 -0.0000 -0.0001 -76.2352 -68.0437 85.0844 33.0001 0.0001 0.0001 -51.5251 11.2147 8.4150 25.1997 0.0001 0.0003 12.2982 10.3537 -7.4738
0.0000 2.7619 0.0000 86.8128 83.1552 89.0622 0.1035 1.8578 10.5485 98.2142 -1.4683 171.4690 43.5000 0.0001 0.0001 -97.7804 11.4655 -5.2172 42.3722 0.0000 0.0000 80.4589 -2.2980 -2.9760 17.2999 -0.0001 0.0000 21.4546 0.0031 -0.0001 0.1035 1.8579 -10.5485 100.3246 4.6980 -178.2523 43.5000 -0.0000 0.0000 -96.3312 0.6898 5.3804 42.3722 0.0000 0.0001 82.1536 -3.5264 3.4814 17.3000 -0.0001 0.0001 21.4546 -0.0031 0.0000 6.9019 -2.6037 0.0000 -4.4168 -0.1424 0.3276 12.5881 0.0000 -0.0001 10.8362 0.9105 0.9008 12.3432 -0.0001 0.0000 -9.2592 -0.0986 0.8502 25.8329 0.0001 0.0001 31.4636 8.5061 -2.0783 11.7667 -0.0000 -0.0000 14.9072 -14.1441 -0.3639 19.7459 -1.4803 6.0001 -48.6011 -83.9256 -123.8611 11.2841 -0.0001 -0.0000 -67.4812 66.7320 -71.4862 33.0000 0.0000 -0.0000 -45.9189 -9.1917 -12.1187 25.2001 0.0001 -0.0000 12.8595 1.5532 18.3587 19.7461 -1.4803 -6.0000 -76.9530 80.1688 95.7331 11.2842 -0.0000 -0.0001 -70.3612 -73.1707 78.7627 33.0001 0.0001 0.0001 -53.4930 11.1668 8.9829 25.1997 0.0001 0.0003 12.2982 10.3537 -7.4738
0.0000 2.6721 0.0000 87.1134 82.4392 89.3652 0.1035 1.8578 10.5485 94.6354 -1.4292 171.3333 43.5000 0.0001 0.0001 -102.3493 11.6186 -5.9880 42.3722 0.0000 0.0000 81.3518 -2.2882 -3.0970 17.2999 -0.0001 0.0000 21.4546 0.0031 -0.0001 0.1035 1.8579 -10.5485 96.7313 4.7422 -178.3870 43.5000 -0.0000 0.0000 -100.8063 0.5021 5.4856 42.3722 0.0000 0.0001 83.0338 -3.4806 3.5988 17.3000 -0.0001 0.0001 21.4546 -0.0031 0.0000 6.9019 -2.6037 0.0000 -4.3309 -0.1390 0.3279 12.5881 0.0000 -0.0001 10.7502 0.9068 0.8996 12.3432 -0.0001 0.0000 -9.1733 -0.0937 0.8493 25.8329 0.0001 0.0001 31.1978 8.4884 -2.0863 11.7667 -0.0000 -0.0000 14.9072 -14.1441 -0.3639 19.7459 -1.4803 6.0001 -48.7358 -83.9291 -123.8119 11.2841 -0.0001 -0.0000 -59.6592 71.1049 -62.7762 33.0000 0.0000 -0.0000 -47.8050 -9.3519 -12.7544 25.2001 0.0001 -0.0000 12.8595 1.5532 18.3587 19.7461 -1.4803 -6.0000 -77.0028 80.1681 95.7697 11.2842 -0.0000 -0.0001 -59.8922 -77.8258 67.8642 33.0001 0.0001 0.0001 -55.4055 11.1387 9.5359 25.1997 0.0001 0.0003 12.2982 10.3537 -7.4738
0.0000 2.5860 0.0000 87.3519 81.7543 89.6060 0.1035 1.8578 10.5485 91.2125 -1.3997 171.2013 43.5000 0.0001 0.0001 -106.7225 11.7082 -6.7350 42.3722 0.0000 0.0000 82.2057 -2.2772 -3.2126 17.2999 -0.0001 0.0000 21.4546 0.0031 -0.0001 0.1035 1.8579 -10.5485 93.2942 4.7764 -178.5182 43.5000 -0.0000 0.0000 -105.0865 0.3308 5.5997 42.3722 0.0000 0.0001 83.8757 -3.4384 3.7117 17.3000 -0.0001 0.0001 21.4546 -0.0031 0.0000 6.9019 -2.6037 0.0000 -4.2486 -0.1358 0.3282 12.5881 0.0000 -0.0001 10.6680 0.9033 0.8984 12.3432 -0.0001 0.0000 -9.0912 -0.0889 0.8484 25.8329 0.0001 0.0001 30.9436 8.4714 -2.0939 11.7667 -0.0000 -0.0000 14.9072 -14.1441 -0.3639 19.7459 -1.4803 6.0001 -48.8648 -83.9325 -123.7647 11.2841 -0.0001 -0.0000 -48.0316 74.7308 -50.3091 33.0000 0.0000 -0.0000 -49.6080 -9.5244 -13.3574 25.2001 0.0001 -0.0000 12.8595 1.5532 18.3587 19.7461 -1.4803 -6.0000 -77.0503 80.1675 95.8047 11.2842 -0.0000 -0.0001 -39.6788 -81.4689 47.2432 33.0001 0.0001 0.0001 -57.2347 11.1287 10.0655 25.1997 0.0001 0.0003 12.2982 10.3537 -7.4738
0.0000 2.5049 0.0000 87.5423 81.1108 89.7986 0.1035 1.8578 10.5485 87.9975 -1.3792 171.0761 43.5000 0.0001 0.0001 -110.8317 11.7414 -7.4413 42.3722 0.0000 0.0000 83.0077 -2.2652 -3.3210 17.2999 -0.0001 0.0000 21.4546 0.0031 -0.0001 0.1035 1.8579 -10.5485 90.0658 4.8014 -178.6430 43.5000 -0.0000 0.0000 -109.1069 0.1781 5.7182 42.3722 0.0000 0.0001 84.6665 -3.4003 3.8183 17.3000 -0.0001 0.0001 21.4546 -0.0031 0.0000 6.9019 -2.6037 0.0000 -4.1714 -0.1328 0.3285 12.5881 0.0000 -0.0001 10.5907 0.9000 0.8973 12.3432 -0.0001 0.0000 -9.0140 -0.0844 0.8476 25.8329 0.0001 0.0001 30.7049 8.4555 -2.1010 11.7667 -0.0000 -0.0000 14.9072 -14.1441 -0.3639 19.7459 -1.4803 6.0001 -48.9860 -83.9356 -123.7203 11.2841 -0.0001 -0.0000 -31.6279 77.2116 -33.1228 33.0000 0.0000 -0.0000 -51.3005 -9.7034 -13.9188 25.2001 0.0001 -0.0000 12.8595 1.5532 18.3587 19.7461 -1.4803 -6.0000 -77.0949 80.1670 95.8377 11.2842 -0.0000 -0.0001 -5.4780 -82.9465 12.6610 33.0001 0.0001 0.0001 -58.9528 11.1345 10.5629 25.1997 0.0001 0.0003 12.2982 10.3537 -7.4738
0.0000 2.4302 0.0000 87.6945 80.5193 89.9527 0.1035 1.8578 10.5485 85.0425 -1.3666 170.9600 43.5000 0.0001 0.0001 -114.6088 11.7281 -8.0910 42.3722 0.0000 0.0000 83.7449 -2.2528 -3.4205 17.2999 -0.0001 0.0000 21.4546 0.0031 -0.0001 0.1035 1.8579 -10.5485 87.0983 4.8182 -178.7589 43.5000 -0.0000 0.0000 -112.8025 0.0453 5.8364 42.3722 0.0000 0.0001 85.3934 -3.3666 3.9167 17.3000 -0.0001 0.0001 21.4546 -0.0031 0.0000 6.9019 -2.6037 0.0000 -4.1004 -0.1300 0.3287 12.5881 0.0000 -0.0001 10.5198 0.8969 0.8963 12.3432 -0.0001 0.0000 -8.9431 -0.0803 0.8468 25.8329 0.0001 0.0001 30.4855 8.4408 -2.1074 11.7667 -0.0000 -0.0000 14.9072 -14.1441 -0.3639 19.7459 -1.4803 6.0001 -49.0975 -83.9385 -123.6795 11.2841 -0.0001 -0.0000 -11.9303 78.1885 -12.7085 33.0000 0.0000 -0.0000 -52.8554 -9.8822 -14.4301 25.2001 0.0001 -0.0000 12.8595 1.5532 18.3587 19.7461 -1.4803 -6.0000 -77.1360 80.1664 95.8679 11.2842 -0.0000 -0.0001 26.4538 -81.6668 -19.6213 33.0001 0.0001 0.0001 -60.5319 11.1527 11.0198 25.1997 0.0001 0.0003 12.2982 10.3537 -7.4738
0.0000 2.3633 0.0000 87.8153 79.9902 90.0752 0.1035 1.8578 10.5485 82.3995 -1.3604 170.8559 43.5000 0.0001 0.0001 -117.9865 11.6807 -8.6703 42.3722 0.0000 0.0000 84.4041 -2.2407 -3.5093 17.2999 -0.0001 0.0000 21.4546 0.0031 -0.0001 0.1035 1.8579 -10.5485 84.4441 4.8281 -178.8631 43.5000 -0.0000 0.0000 -116.1082 -0.0667 5.9491 42.3722 0.0000 0.0001 86.0436 -3.3376 4.0051 17.3000 -0.0001 0.0001 21.4546 -0.0031 0.0000 6.9019 -2.6037 0.0000 -4.0369 -0.1275 0.3290 12.5881 0.0000 -0.0001 10.4563 0.8942 0.8954 12.3432 -0.0001 0.0000 -8.8797 -0.0767 0.8461 25.8329 0.0001 0.0001 30.2893 8.4276 -2.1131 11.7667 -0.0000 -0.0000 14.9072 -14.1441 -0.3639 19.7459 -1.4803 6.0001 -49.1973 -83.9411 -123.6428 11.2841 -0.0001 -0.0000 6.3988 77.7348 6.2614 33.0000 0.0000 -0.0000 -54.2454 -10.0537 -14.8834 25.2001 0.0001 -0.0000 12.8595 1.5532 18.3587 19.7461 -1.4803 -6.0000 -77.1727 80.1660 95.8950 11.2842 -0.0000 -0.0001 44.1227 -79.0361 -37.6045 33.0001 0.0001 0.0001 -61.9443 11.1795 11.4279 25.1997 0.0001 0.0003 12.2982 10.3537 -7.4738
0.0000 2.3055 0.0000 87.9096 79.5340 90.1711 0.1035 1.8578 10.5485 80.1204 -1.3590 170.7659 43.5000 0.0001 0.0001 -120.8979 11.6130 -9.1666 42.3722 0.0000 0.0000 84.9726 -2.2294 -3.5858 17.2999 -0.0001 0.0000 21.4546 0.0031 -0.0001 0.1035 1.8579 -10.5485 82.1552 4.8327 -178.9533 43.5000 -0.0000 0.0000 -118.9588 -0.1580 6.0513 42.3722 0.0000 0.0001 86.6042 -3.3133 4.0816 17.3000 -0.0001 0.0001 21.4546 -0.0031 0.0000 6.9019 -2.6037 0.0000 -3.9822 -0.1254 0.3292 12.5881 0.0000 -0.0001 10.4015 0.8918 0.8946 12.3432 -0.0001 0.0000 -8.8250 -0.0735 0.8456 25.8329 0.0001 0.0001 30.1201 8.4163 -2.1180 11.7667 -0.0000 -0.0000 14.9072 -14.1441 -0.3639 19.7459 -1.4803 6.0001 -49.2834 -83.9433 -123.6112 11.2841 -0.0001 -0.0000 20.0068 76.4193 20.4230 33.0000 0.0000 -0.0000 -55.4435 -10.2102 -15.2710 25.2001 0.0001 -0.0000 12.8595 1.5532 18.3587 19.7461 -1.4803 -6.0000 -77.2043 80.1656 95.9183 11.2842 -0.0000 -0.0001 53.2055 -76.2480 -46.9596 33.0001 0.0001 0.0001 -63.1621 11.2104 11.7792 25.1997 0.0001 0.0003 12.2982 10.3537 -7.4738
0.0000 2.2581 0.0000 87.9807 79.1610 90.2435 0.1035 1.8578 10.5485 78.2573 -1.3604 170.6923 43.5000 0.0001 0.0001 -123.2768 11.5395 -9.5692 42.3722 0.0000 0.0000 85.4373 -2.2196 -3.6482 17.2999 -0.0001 0.0000 21.4546 0.0031 -0.0001 0.1035 1.8579 -10.5485 80.2842 4.8339 -179.0271 43.5000 -0.0000 0.0000 -121.2893 -0.2288 6.1382 42.3722 0.0000 0.0001 87.0626 -3.2940 4.1443 17.3000 -0.0001 0.0001 21.4546 -0.0031 0.0000 6.9019 -2.6037 0.0000 -3.9374 -0.1236 0.3294 12.5881 0.0000 -0.0001 10.3568 0.8899 0.8940 12.3432 -0.0001 0.0000 -8.7802 -0.0709 0.8451 25.8329 0.0001 0.0001 29.9817 8.4069 -2.1219 11.7667 -0.0000 -0.0000 14.9072 -14.1441 -0.3639 19.7459 -1.4803 6.0001 -49.3538 -83.9451 -123.5853 11.2841 -0.0001 -0.0000 28.9357 74.8627 29.8058 33.0000 0.0000 -0.0000 -56.4226 -10.3441 -15.5854 25.2001 0.0001 -0.0000 12.8595 1.5532 18.3587 19.7461 -1.4803 -6.0000 -77.2302 80.1653 95.9374 11.2842 -0.0000 -0.0001 58.1853 -73.7907 -52.1633 33.0001 0.0001 0.0001 -64.1575 11.2412 12.0659 25.1997 0.0001 0.0003 12.2982 10.3537 -7.4738
0.0000 2.2227 0.0000 88.0309 78.8816 90.2945 0.1035 1.8578 10.5485 76.8621 -1.3631 170.6373 43.5000 0.0001 0.0001 -125.0574 11.4737 -9.8684 42.3722 0.0000 0.0000 85.7853 -2.2120 -3.6949 17.2999 -0.0001 0.0000 21.4546 0.0031 -0.0001 0.1035 1.8579 -10.5485 78.8830 4.8332 -179.0824 43.5000 -0.0000 0.0000 -123.0346 -0.2794 6.2051 42.3722 0.0000 0.0001 87.4058 -3.2799 4.1913 17.3000 -0.0001 0.0001 21.4546 -0.0031 0.0000 6.9019 -2.6037 0.0000 -3.9039 -0.1223 0.3295 12.5881 0.0000 -0.0001 10.3233 0.8884 0.8935 12.3432 -0.0001 0.0000 -8.7468 -0.0690 0.8448 25.8329 0.0001 0.0001 29.8782 8.4000 -2.1249 11.7667 -0.0000 -0.0000 14.9072 -14.1441 -0.3639 19.7459 -1.4803 6.0001 -49.4065 -83.9465 -123.5659 11.2841 -0.0001 -0.0000 34.3967 73.4903 35.6078 33.0000 0.0000 -0.0000 -57.1556 -10.4478 -15.8194 25.2001 0.0001 -0.0000 12.8595 1.5532 18.3587 19.7461 -1.4803 -6.0000 -77.2496 80.1650 95.9517 11.2842 -0.0000 -0.0001 60.9987 -71.8876 -55.1452 33.0001 0.0001 0.0001 -64.9030 11.2674 12.2802 25.1997 0.0001 0.0003 12.2982 10.3537 -7.4738
0.0000 2.2004 0.0000 88.0610 78.7064 90.3253 0.1035 1.8578 10.5485 75.9869 -1.3654 170.6028 43.5000 0.0001 0.0001 -126.1741 11.4278 -10.0550 42.3722 0.0000 0.0000 86.0036 -2.2070 -3.7242 17.2999 -0.0001 0.0000 21.4546 0.0031 -0.0001 0.1035 1.8579 -10.5485 78.0040 4.8321 -179.1170 43.5000 -0.0000 0.0000 -124.1295 -0.3101 6.2479 42.3722 0.0000 0.0001 87.6212 -3.2712 4.2209 17.3000 -0.0001 0.0001 21.4546 -0.0031 0.0000 6.9019 -2.6037 0.0000 -3.8829 -0.1215 0.3296 12.5881 0.0000 -0.0001 10.3022 0.8875 0.8932 12.3432 -0.0001 0.0000 -8.7258 -0.0678 0.8445 25.8329 0.0001 0.0001 29.8132 8.3956 -2.1267 11.7667 -0.0000 -0.0000 14.9072 -14.1441 -0.3639 19.7459 -1.4803 6.0001 -49.4396 -83.9473 -123.5538 11.2841 -0.0001 -0.0000 37.3553 72.5596 38.7810 33.0000 0.0000 -0.0000 -57.6153 -10.5143 -15.9656 25.2001 0.0001 -0.0000 12.8595 1.5532 18.3587 19.7461 -1.4803 -6.0000 -77.2617 80.1649 95.9607 11.2842 -0.0000 -0.0001 62.4720 -70.6742 -56.7247 33.0001 0.0001 0.0001 -65.3706 11.2853 12.4145 25.1997 0.0001 0.0003 12.2982 10.3537 -7.4738
